<?xml version="1.0" standalone="no"?>
<!DOCTYPE svg PUBLIC "-//W3C//DTD SVG 20010904//EN"
 "http://www.w3.org/TR/2001/REC-SVG-20010904/DTD/svg10.dtd">
<svg version="1.0" xmlns="http://www.w3.org/2000/svg"
 width="512.000000pt" height="512.000000pt" viewBox="0 0 512.000000 512.000000"
 preserveAspectRatio="xMidYMid meet">
<metadata>
Created by potrace 1.11, written by Peter Selinger 2001-2013
</metadata>
<g transform="translate(0.000000,512.000000) scale(0.100000,-0.100000)"
fill="#000000" stroke="none">
<path d="M1190 4462 l0 -48 88 -21 c95 -22 193 -64 223 -94 18 -18 19 -62 19
-1202 l0 -1184 -23 -21 c-32 -30 -104 -60 -210 -87 l-92 -23 -3 -46 -3 -46
506 0 506 0 -3 47 -3 47 -72 17 c-88 20 -156 45 -205 76 l-38 23 0 580 0 580
680 0 680 0 0 -580 0 -580 -39 -24 c-34 -22 -149 -62 -241 -84 -33 -8 -35 -11
-38 -55 l-3 -47 506 0 506 0 -3 46 -3 46 -90 23 c-107 27 -158 48 -202 81
l-33 25 0 1185 0 1185 26 24 c30 28 130 67 232 92 l72 17 0 48 0 48 -505 0
-505 0 0 -48 0 -49 58 -12 c88 -20 173 -51 217 -80 l40 -27 3 -512 2 -512
-680 0 -680 0 0 508 c0 279 4 512 8 518 18 29 242 114 298 114 10 0 14 14 14
50 l0 50 -505 0 -505 0 0 -48z"/>
<path d="M1903 1331 c-75 -54 -76 -61 -37 -155 73 -170 174 -320 276 -410 103
-91 277 -156 419 -156 151 0 310 63 421 168 121 114 199 228 274 405 l33 77
-28 33 c-16 17 -43 40 -60 50 l-30 18 -32 -63 c-68 -134 -172 -247 -290 -315
-115 -66 -302 -91 -429 -58 -181 47 -347 190 -444 383 -14 28 -28 52 -30 52
-2 0 -21 -13 -43 -29z"/>
</g>
</svg>
